<svg width="19" height="17" viewBox="0 0 19 17" fill="none" xmlns="http://www.w3.org/2000/svg">
<path fill-rule="evenodd" clip-rule="evenodd" d="M6.92021 8.18475C6.92021 9.64025 8.24587 10.8245 9.88259 10.8245C11.5119 10.8245 12.8376 9.64025 12.8376 8.18475C12.8376 6.72263 11.5119 5.53839 9.88259 5.53839C8.24587 5.53839 6.92021 6.72263 6.92021 8.18475ZM14.2373 4.12258C15.5334 5.02234 16.6369 6.33891 17.4293 7.98627C17.4885 8.11198 17.4885 8.25753 17.4293 8.37661C15.8444 11.6713 13.0227 13.6429 9.88261 13.6429H9.87521C6.74249 13.6429 3.92082 11.6713 2.33594 8.37661C2.27669 8.25753 2.27669 8.11198 2.33594 7.98627C3.92082 4.69155 6.74249 2.72662 9.87521 2.72662H9.88261C11.4527 2.72662 12.9413 3.2162 14.2373 4.12258ZM9.88352 9.83066C10.8981 9.83066 11.7276 9.08968 11.7276 8.1833C11.7276 7.2703 10.8981 6.52932 9.88352 6.52932C9.79465 6.52932 9.70578 6.53593 9.62431 6.54917C9.59469 7.27692 8.92815 7.85912 8.10609 7.85912H8.06906C8.04684 7.96497 8.03203 8.07083 8.03203 8.1833C8.03203 9.08968 8.8615 9.83066 9.88352 9.83066Z" fill="#808191"/>
</svg>
