<svg width="15" height="12" viewBox="0 0 15 12" fill="none" xmlns="http://www.w3.org/2000/svg">
<path fill-rule="evenodd" clip-rule="evenodd" d="M10.1223 0.513828C10.5415 0.513828 10.9599 0.56696 11.3578 0.686953C13.8094 1.40333 14.6929 3.82111 13.9549 5.93443C13.5364 7.01437 12.8523 7.99999 11.9563 8.80532C10.6736 9.92168 9.26616 10.9127 7.75107 11.7664L7.58501 11.8565L7.41231 11.7604C5.89191 10.9127 4.47645 9.92168 3.18188 8.79935C2.29182 7.99402 1.60701 7.01437 1.18191 5.93443C0.431338 3.82111 1.31475 1.40333 3.79297 0.674417C3.98559 0.614718 4.18419 0.57293 4.38346 0.549647H4.46317C4.64981 0.525171 4.83513 0.513828 5.02111 0.513828H5.09418C5.51264 0.525171 5.91781 0.590839 6.31037 0.710833H6.34956C6.37613 0.722175 6.39605 0.734712 6.40934 0.746055C6.55613 0.78844 6.69495 0.836199 6.8278 0.901867L7.0802 1.00335C7.14119 1.03259 7.20965 1.07726 7.26882 1.11587C7.3063 1.14033 7.34006 1.16236 7.36582 1.17648C7.37666 1.18223 7.38767 1.18801 7.39878 1.19383C7.45573 1.22371 7.51506 1.25484 7.56508 1.28931C8.30304 0.78247 9.19907 0.507858 10.1223 0.513828ZM11.8892 4.8121C12.1615 4.80553 12.394 4.60913 12.4139 4.3578V4.28676C12.4338 3.45038 11.8699 2.69281 11.0124 2.40029C10.7401 2.31612 10.4412 2.44805 10.3415 2.69878C10.2485 2.94951 10.3947 3.22413 10.6736 3.31308C11.0994 3.45635 11.3844 3.83305 11.3844 4.25034V4.26885C11.3717 4.40556 11.4176 4.53749 11.5106 4.63898C11.6036 4.74046 11.743 4.79957 11.8892 4.8121Z" fill="#808191"/>
</svg>
