<svg width="375" height="416" viewBox="0 0 375 416" fill="none" xmlns="http://www.w3.org/2000/svg">
<g clip-path="url(#clip0_1112_7924)">
<path d="M191.474 87.5015L216.169 93.2186L210.111 105.054L191.474 87.5015Z" fill="#E56953"/>
<path d="M46.441 407.502L44.8188 426.868L32.6409 421.532L46.441 407.502Z" fill="#FCD4BC"/>
<path d="M118 163.787C118 163.787 141.042 153.776 148.683 157.845C153.25 160.276 154.154 165.796 151.362 169.335C149.21 172.062 146.104 172.41 142.464 171.769C134.755 170.412 134.872 159.68 137.966 153.034C142.239 143.857 164.918 149.273 164.918 149.273" stroke="#52D6C0" stroke-width="4"/>
<path d="M309 236.047C309 236.047 323.124 248.916 322.681 255.485C322.416 259.412 318.868 261.758 315.543 260.923C312.98 260.28 311.771 258.233 311.082 255.507C309.623 249.736 317.105 246.474 322.681 246.551C330.379 246.657 333.685 264.08 333.685 264.08" stroke="#BCFADF" stroke-width="4"/>
<path d="M121.017 -10.1282L105.728 -4.73341C99.3559 -2.48484 92.8613 -7.61969 93.6303 -14.2987C94.3233 -20.3176 90.5955 -27.1233 83.4131 -24.5404C77.7995 -22.5217 72.0977 -27.1819 73.0021 -33.0495" stroke="#89C8FF" stroke-width="4"/>
<path d="M267.622 138.173L266.22 150.354C265.636 155.432 259.992 158.144 255.707 155.407C251.846 152.94 245.983 153.218 245.358 158.957C244.869 163.442 239.811 165.773 236.122 163.212" stroke="#CFF0FF" stroke-width="4"/>
<path d="M42.0002 60L56.0765 61.6198C61.9436 62.295 65.0778 68.8166 61.9149 73.7683C59.0646 78.2307 59.3855 85.0047 66.0168 85.7276C71.1997 86.2926 73.8931 92.1375 70.9347 96.4" stroke="#89C8FF" stroke-width="4"/>
<path d="M340.087 396L352.077 397.806C357.075 398.559 359.561 404.23 356.708 408.37C354.137 412.101 354.209 417.905 359.859 418.721C364.275 419.359 366.404 424.438 363.746 427.995" stroke="#89C8FF" stroke-width="4"/>
<rect x="339.048" y="67.6597" width="15.0402" height="5.85855" transform="rotate(117 339.048 67.6597)" fill="#DAD0FB"/>
<rect x="232.024" y="235.802" width="21.4545" height="8.35705" transform="rotate(159 232.024 235.802)" fill="#FDF9B7"/>
<rect x="49" y="181" width="13.9343" height="5.42778" transform="rotate(-63 49 181)" fill="#8475D1"/>
<rect x="303.5" y="174" width="13.492" height="5.25547" transform="rotate(-93 303.5 174)" fill="#F3E34A"/>
</g>
<defs>
<clipPath id="clip0_1112_7924">
<rect width="375" height="416" fill="white"/>
</clipPath>
</defs>
</svg>
