<svg width="60" height="812" viewBox="0 0 60 812" fill="none" xmlns="http://www.w3.org/2000/svg">
<path fill-rule="evenodd" clip-rule="evenodd" d="M9.08579 0.585787C8.30474 -0.195262 7.03841 -0.195263 6.25736 0.585786L-9.617 16.4601C-10.3981 17.2412 -10.3981 18.5075 -9.617 19.2886L6.25736 35.1629C7.03841 35.944 8.30474 35.944 9.08578 35.1629L24.9602 19.2886C25.7412 18.5075 25.7412 17.2412 24.9602 16.4602L9.08579 0.585787ZM9.28858 71.4914C8.50753 70.7103 7.2412 70.7103 6.46015 71.4914L-9.41422 87.3657C-10.1953 88.1468 -10.1953 89.4131 -9.41422 90.1942L6.46015 106.069C7.2412 106.85 8.50753 106.85 9.28857 106.069L25.1629 90.1942C25.944 89.4131 25.944 88.1468 25.1629 87.3657L9.28858 71.4914ZM40.4602 34.4914C41.2412 33.7103 42.5075 33.7103 43.2886 34.4914L59.1629 50.3657C59.944 51.1468 59.944 52.4131 59.1629 53.1942L43.2886 69.0685C42.5075 69.8496 41.2412 69.8496 40.4602 69.0685L24.5858 53.1942C23.8047 52.4131 23.8047 51.1468 24.5858 50.3657L40.4602 34.4914ZM-23.7114 34.4914C-24.4925 33.7103 -25.7588 33.7103 -26.5399 34.4914L-42.4142 50.3657C-43.1953 51.1468 -43.1953 52.4131 -42.4142 53.1942L-26.5399 69.0685C-25.7588 69.8496 -24.4925 69.8496 -23.7114 69.0685L-7.83706 53.1942C-7.05601 52.4131 -7.05601 51.1468 -7.83706 50.3657L-23.7114 34.4914Z" fill="#6C5F8D" fill-opacity="0.59"/>
<path fill-rule="evenodd" clip-rule="evenodd" d="M9.08579 125.586C8.30474 124.805 7.03841 124.805 6.25736 125.586L-9.617 141.46C-10.3981 142.241 -10.3981 143.508 -9.617 144.289L6.25736 160.163C7.03841 160.944 8.30474 160.944 9.08578 160.163L24.9602 144.289C25.7412 143.508 25.7412 142.241 24.9602 141.46L9.08579 125.586ZM9.28858 196.491C8.50753 195.71 7.2412 195.71 6.46015 196.491L-9.41422 212.366C-10.1953 213.147 -10.1953 214.413 -9.41422 215.194L6.46015 231.069C7.2412 231.85 8.50753 231.85 9.28857 231.069L25.1629 215.194C25.944 214.413 25.944 213.147 25.1629 212.366L9.28858 196.491ZM40.4602 159.491C41.2412 158.71 42.5075 158.71 43.2886 159.491L59.1629 175.366C59.944 176.147 59.944 177.413 59.1629 178.194L43.2886 194.069C42.5075 194.85 41.2412 194.85 40.4602 194.069L24.5858 178.194C23.8047 177.413 23.8047 176.147 24.5858 175.366L40.4602 159.491ZM-23.7114 159.491C-24.4925 158.71 -25.7588 158.71 -26.5399 159.491L-42.4142 175.366C-43.1953 176.147 -43.1953 177.413 -42.4142 178.194L-26.5399 194.069C-25.7588 194.85 -24.4925 194.85 -23.7114 194.069L-7.83706 178.194C-7.05601 177.413 -7.05601 176.147 -7.83706 175.366L-23.7114 159.491Z" fill="#F9D048" fill-opacity="0.65"/>
<path fill-rule="evenodd" clip-rule="evenodd" d="M9.08579 250.586C8.30474 249.805 7.03841 249.805 6.25736 250.586L-9.617 266.46C-10.3981 267.241 -10.3981 268.508 -9.617 269.289L6.25736 285.163C7.03841 285.944 8.30474 285.944 9.08578 285.163L24.9602 269.289C25.7412 268.508 25.7412 267.241 24.9602 266.46L9.08579 250.586ZM9.28858 321.491C8.50753 320.71 7.2412 320.71 6.46015 321.491L-9.41422 337.366C-10.1953 338.147 -10.1953 339.413 -9.41422 340.194L6.46015 356.069C7.2412 356.85 8.50753 356.85 9.28857 356.069L25.1629 340.194C25.944 339.413 25.944 338.147 25.1629 337.366L9.28858 321.491ZM40.4602 284.491C41.2412 283.71 42.5075 283.71 43.2886 284.491L59.1629 300.366C59.944 301.147 59.944 302.413 59.1629 303.194L43.2886 319.069C42.5075 319.85 41.2412 319.85 40.4602 319.069L24.5858 303.194C23.8047 302.413 23.8047 301.147 24.5858 300.366L40.4602 284.491ZM-23.7114 284.491C-24.4925 283.71 -25.7588 283.71 -26.5399 284.491L-42.4142 300.366C-43.1953 301.147 -43.1953 302.413 -42.4142 303.194L-26.5399 319.069C-25.7588 319.85 -24.4925 319.85 -23.7114 319.069L-7.83706 303.194C-7.05601 302.413 -7.05601 301.147 -7.83706 300.366L-23.7114 284.491Z" fill="#6C5F8D" fill-opacity="0.59"/>
<path fill-rule="evenodd" clip-rule="evenodd" d="M9.08579 375.586C8.30474 374.805 7.03841 374.805 6.25736 375.586L-9.617 391.46C-10.3981 392.241 -10.3981 393.508 -9.617 394.289L6.25736 410.163C7.03841 410.944 8.30474 410.944 9.08578 410.163L24.9602 394.289C25.7412 393.508 25.7412 392.241 24.9602 391.46L9.08579 375.586ZM9.28858 446.491C8.50753 445.71 7.2412 445.71 6.46015 446.491L-9.41422 462.366C-10.1953 463.147 -10.1953 464.413 -9.41422 465.194L6.46015 481.069C7.2412 481.85 8.50753 481.85 9.28857 481.069L25.1629 465.194C25.944 464.413 25.944 463.147 25.1629 462.366L9.28858 446.491ZM40.4602 409.491C41.2412 408.71 42.5075 408.71 43.2886 409.491L59.1629 425.366C59.944 426.147 59.944 427.413 59.1629 428.194L43.2886 444.069C42.5075 444.85 41.2412 444.85 40.4602 444.069L24.5858 428.194C23.8047 427.413 23.8047 426.147 24.5858 425.366L40.4602 409.491ZM-23.7114 409.491C-24.4925 408.71 -25.7588 408.71 -26.5399 409.491L-42.4142 425.366C-43.1953 426.147 -43.1953 427.413 -42.4142 428.194L-26.5399 444.069C-25.7588 444.85 -24.4925 444.85 -23.7114 444.069L-7.83706 428.194C-7.05601 427.413 -7.05601 426.147 -7.83706 425.366L-23.7114 409.491Z" fill="#F9D048" fill-opacity="0.65"/>
<path fill-rule="evenodd" clip-rule="evenodd" d="M9.08579 500.586C8.30474 499.805 7.03841 499.805 6.25736 500.586L-9.617 516.46C-10.3981 517.241 -10.3981 518.508 -9.617 519.289L6.25736 535.163C7.03841 535.944 8.30474 535.944 9.08578 535.163L24.9602 519.289C25.7412 518.508 25.7412 517.241 24.9602 516.46L9.08579 500.586ZM9.28858 571.491C8.50753 570.71 7.2412 570.71 6.46015 571.491L-9.41422 587.366C-10.1953 588.147 -10.1953 589.413 -9.41422 590.194L6.46015 606.069C7.2412 606.85 8.50753 606.85 9.28857 606.069L25.1629 590.194C25.944 589.413 25.944 588.147 25.1629 587.366L9.28858 571.491ZM40.4602 534.491C41.2412 533.71 42.5075 533.71 43.2886 534.491L59.1629 550.366C59.944 551.147 59.944 552.413 59.1629 553.194L43.2886 569.069C42.5075 569.85 41.2412 569.85 40.4602 569.069L24.5858 553.194C23.8047 552.413 23.8047 551.147 24.5858 550.366L40.4602 534.491ZM-23.7114 534.491C-24.4925 533.71 -25.7588 533.71 -26.5399 534.491L-42.4142 550.366C-43.1953 551.147 -43.1953 552.413 -42.4142 553.194L-26.5399 569.069C-25.7588 569.85 -24.4925 569.85 -23.7114 569.069L-7.83706 553.194C-7.05601 552.413 -7.05601 551.147 -7.83706 550.366L-23.7114 534.491Z" fill="#6C5F8D" fill-opacity="0.59"/>
<path fill-rule="evenodd" clip-rule="evenodd" d="M9.08579 625.586C8.30474 624.805 7.03841 624.805 6.25736 625.586L-9.617 641.46C-10.3981 642.241 -10.3981 643.508 -9.617 644.289L6.25736 660.163C7.03841 660.944 8.30474 660.944 9.08578 660.163L24.9602 644.289C25.7412 643.508 25.7412 642.241 24.9602 641.46L9.08579 625.586ZM9.28858 696.491C8.50753 695.71 7.2412 695.71 6.46015 696.491L-9.41422 712.366C-10.1953 713.147 -10.1953 714.413 -9.41422 715.194L6.46015 731.069C7.2412 731.85 8.50753 731.85 9.28857 731.069L25.1629 715.194C25.944 714.413 25.944 713.147 25.1629 712.366L9.28858 696.491ZM40.4602 659.491C41.2412 658.71 42.5075 658.71 43.2886 659.491L59.1629 675.366C59.944 676.147 59.944 677.413 59.1629 678.194L43.2886 694.069C42.5075 694.85 41.2412 694.85 40.4602 694.069L24.5858 678.194C23.8047 677.413 23.8047 676.147 24.5858 675.366L40.4602 659.491ZM-23.7114 659.491C-24.4925 658.71 -25.7588 658.71 -26.5399 659.491L-42.4142 675.366C-43.1953 676.147 -43.1953 677.413 -42.4142 678.194L-26.5399 694.069C-25.7588 694.85 -24.4925 694.85 -23.7114 694.069L-7.83706 678.194C-7.05601 677.413 -7.05601 676.147 -7.83706 675.366L-23.7114 659.491Z" fill="#F9D048" fill-opacity="0.65"/>
<path fill-rule="evenodd" clip-rule="evenodd" d="M9.08579 754.586C8.30474 753.805 7.03841 753.805 6.25736 754.586L-9.617 770.46C-10.3981 771.241 -10.3981 772.508 -9.617 773.289L6.25736 789.163C7.03841 789.944 8.30474 789.944 9.08578 789.163L24.9602 773.289C25.7412 772.508 25.7412 771.241 24.9602 770.46L9.08579 754.586ZM9.28858 825.491C8.50753 824.71 7.2412 824.71 6.46015 825.491L-9.41422 841.366C-10.1953 842.147 -10.1953 843.413 -9.41422 844.194L6.46015 860.069C7.2412 860.85 8.50753 860.85 9.28857 860.069L25.1629 844.194C25.944 843.413 25.944 842.147 25.1629 841.366L9.28858 825.491ZM40.4602 788.491C41.2412 787.71 42.5075 787.71 43.2886 788.491L59.1629 804.366C59.944 805.147 59.944 806.413 59.1629 807.194L43.2886 823.069C42.5075 823.85 41.2412 823.85 40.4602 823.069L24.5858 807.194C23.8047 806.413 23.8047 805.147 24.5858 804.366L40.4602 788.491ZM-23.7114 788.491C-24.4925 787.71 -25.7588 787.71 -26.5399 788.491L-42.4142 804.366C-43.1953 805.147 -43.1953 806.413 -42.4142 807.194L-26.5399 823.069C-25.7588 823.85 -24.4925 823.85 -23.7114 823.069L-7.83706 807.194C-7.05601 806.413 -7.05601 805.147 -7.83706 804.366L-23.7114 788.491Z" fill="#6C5F8D" fill-opacity="0.59"/>
</svg>
