<svg width="88" height="88" viewBox="0 0 88 88" fill="none" xmlns="http://www.w3.org/2000/svg">
<g filter="url(#filter0_d_1112_10462)">
<circle cx="44" cy="38" r="28" fill="white"/>
</g>
<path d="M43.9998 24.6667C36.6532 24.6667 30.6665 30.6534 30.6665 38.0001C30.6665 45.3467 36.6532 51.3334 43.9998 51.3334C51.3465 51.3334 57.3332 45.3467 57.3332 38.0001C57.3332 30.6534 51.3465 24.6667 43.9998 24.6667ZM50.3732 34.9334L42.8132 42.4934C42.6265 42.6801 42.3732 42.7867 42.1065 42.7867C41.8398 42.7867 41.5865 42.6801 41.3998 42.4934L37.6265 38.7201C37.2398 38.3334 37.2398 37.6934 37.6265 37.3067C38.0132 36.9201 38.6532 36.9201 39.0398 37.3067L42.1065 40.3734L48.9598 33.5201C49.3465 33.1334 49.9865 33.1334 50.3732 33.5201C50.7598 33.9067 50.7598 34.5334 50.3732 34.9334Z" fill="#6C5F8D"/>
<defs>
<filter id="filter0_d_1112_10462" x="0" y="0" width="88" height="88" filterUnits="userSpaceOnUse" color-interpolation-filters="sRGB">
<feFlood flood-opacity="0" result="BackgroundImageFix"/>
<feColorMatrix in="SourceAlpha" type="matrix" values="0 0 0 0 0 0 0 0 0 0 0 0 0 0 0 0 0 0 127 0" result="hardAlpha"/>
<feOffset dy="6"/>
<feGaussianBlur stdDeviation="8"/>
<feComposite in2="hardAlpha" operator="out"/>
<feColorMatrix type="matrix" values="0 0 0 0 0.48 0 0 0 0 0.48 0 0 0 0 0.48 0 0 0 0.12 0"/>
<feBlend mode="normal" in2="BackgroundImageFix" result="effect1_dropShadow_1112_10462"/>
<feBlend mode="normal" in="SourceGraphic" in2="effect1_dropShadow_1112_10462" result="shape"/>
</filter>
</defs>
</svg>
