<svg width="129" height="104" viewBox="0 0 129 104" fill="none" xmlns="http://www.w3.org/2000/svg">
<path d="M27.1329 11.3542H32.8929V12.7142H27.1329V11.3542ZM27.2769 16.3302H33.8049V17.7222H25.6769V6.52217H33.5809V7.91417H27.2769V16.3302ZM39.1804 17.8182C38.359 17.8182 37.623 17.6368 36.9724 17.2742C36.3324 16.9115 35.8257 16.4048 35.4524 15.7542C35.079 15.1035 34.8924 14.3462 34.8924 13.4822C34.8924 12.6182 35.079 11.8662 35.4524 11.2262C35.8257 10.5755 36.3324 10.0688 36.9724 9.70617C37.623 9.3435 38.359 9.16217 39.1804 9.16217C39.895 9.16217 40.5404 9.32217 41.1164 9.64217C41.6924 9.96217 42.151 10.4422 42.4924 11.0822C42.8444 11.7222 43.0204 12.5222 43.0204 13.4822C43.0204 14.4422 42.8497 15.2422 42.5084 15.8822C42.1777 16.5222 41.7244 17.0075 41.1484 17.3382C40.5724 17.6582 39.9164 17.8182 39.1804 17.8182ZM39.3084 16.4742C39.8417 16.4742 40.3217 16.3515 40.7484 16.1062C41.1857 15.8608 41.527 15.5142 41.7724 15.0662C42.0284 14.6075 42.1564 14.0795 42.1564 13.4822C42.1564 12.8742 42.0284 12.3515 41.7724 11.9142C41.527 11.4662 41.1857 11.1195 40.7484 10.8742C40.3217 10.6288 39.8417 10.5062 39.3084 10.5062C38.7644 10.5062 38.279 10.6288 37.8524 10.8742C37.4257 11.1195 37.0844 11.4662 36.8284 11.9142C36.5724 12.3515 36.4444 12.8742 36.4444 13.4822C36.4444 14.0795 36.5724 14.6075 36.8284 15.0662C37.0844 15.5142 37.4257 15.8608 37.8524 16.1062C38.279 16.3515 38.7644 16.4742 39.3084 16.4742ZM42.2044 17.7222V15.4342L42.3004 13.4662L42.1404 11.4982V5.85017H43.6764V17.7222H42.2044ZM49.7647 17.8182C49.0394 17.8182 48.3994 17.6848 47.8447 17.4182C47.3007 17.1515 46.8741 16.7462 46.5647 16.2022C46.2661 15.6475 46.1167 14.9542 46.1167 14.1222V9.24217H47.6527V13.9462C47.6527 14.7782 47.8501 15.4022 48.2447 15.8182C48.6501 16.2342 49.2154 16.4422 49.9407 16.4422C50.4741 16.4422 50.9381 16.3355 51.3327 16.1222C51.7274 15.8982 52.0314 15.5782 52.2447 15.1622C52.4581 14.7355 52.5647 14.2235 52.5647 13.6262V9.24217H54.1007V17.7222H52.6447V15.4342L52.8847 16.0422C52.6074 16.6075 52.1914 17.0448 51.6367 17.3542C51.0821 17.6635 50.4581 17.8182 49.7647 17.8182ZM60.335 17.8182C59.471 17.8182 58.6977 17.6315 58.015 17.2582C57.343 16.8848 56.815 16.3728 56.431 15.7222C56.047 15.0715 55.855 14.3248 55.855 13.4822C55.855 12.6395 56.047 11.8928 56.431 11.2422C56.815 10.5915 57.343 10.0848 58.015 9.72217C58.6977 9.34883 59.471 9.16217 60.335 9.16217C61.103 9.16217 61.7857 9.31683 62.383 9.62617C62.991 9.92483 63.4603 10.3728 63.791 10.9702L62.623 11.7222C62.3457 11.3062 62.0043 11.0022 61.599 10.8102C61.2043 10.6075 60.7777 10.5062 60.319 10.5062C59.7643 10.5062 59.2683 10.6288 58.831 10.8742C58.3937 11.1195 58.047 11.4662 57.791 11.9142C57.535 12.3515 57.407 12.8742 57.407 13.4822C57.407 14.0902 57.535 14.6182 57.791 15.0662C58.047 15.5142 58.3937 15.8608 58.831 16.1062C59.2683 16.3515 59.7643 16.4742 60.319 16.4742C60.7777 16.4742 61.2043 16.3782 61.599 16.1862C62.0043 15.9835 62.3457 15.6742 62.623 15.2582L63.791 15.9942C63.4603 16.5808 62.991 17.0342 62.383 17.3542C61.7857 17.6635 61.103 17.8182 60.335 17.8182ZM70.6577 17.7222V15.9302L70.5777 15.5942V12.5382C70.5777 11.8875 70.3857 11.3862 70.0017 11.0342C69.6284 10.6715 69.0631 10.4902 68.3057 10.4902C67.8044 10.4902 67.3137 10.5755 66.8337 10.7462C66.3537 10.9062 65.9484 11.1248 65.6177 11.4022L64.9777 10.2502C65.4151 9.89817 65.9377 9.6315 66.5457 9.45017C67.1644 9.25817 67.8097 9.16217 68.4817 9.16217C69.6444 9.16217 70.5404 9.44483 71.1697 10.0102C71.7991 10.5755 72.1137 11.4395 72.1137 12.6022V17.7222H70.6577ZM67.8737 17.8182C67.2444 17.8182 66.6897 17.7115 66.2097 17.4982C65.7404 17.2848 65.3777 16.9915 65.1217 16.6182C64.8657 16.2342 64.7377 15.8022 64.7377 15.3222C64.7377 14.8635 64.8444 14.4475 65.0577 14.0742C65.2817 13.7008 65.6391 13.4022 66.1297 13.1782C66.6311 12.9542 67.3031 12.8422 68.1457 12.8422H70.8337V13.9462H68.2097C67.4417 13.9462 66.9244 14.0742 66.6577 14.3302C66.3911 14.5862 66.2577 14.8955 66.2577 15.2582C66.2577 15.6742 66.4231 16.0102 66.7537 16.2662C67.0844 16.5115 67.5431 16.6342 68.1297 16.6342C68.7057 16.6342 69.2071 16.5062 69.6337 16.2502C70.0711 15.9942 70.3857 15.6208 70.5777 15.1302L70.8817 16.1862C70.6791 16.6875 70.3217 17.0875 69.8097 17.3862C69.2977 17.6742 68.6524 17.8182 67.8737 17.8182ZM78.2663 17.8182C77.4023 17.8182 76.629 17.6315 75.9463 17.2582C75.2743 16.8848 74.7463 16.3728 74.3623 15.7222C73.9783 15.0715 73.7863 14.3248 73.7863 13.4822C73.7863 12.6395 73.9783 11.8928 74.3623 11.2422C74.7463 10.5915 75.2743 10.0848 75.9463 9.72217C76.629 9.34883 77.4023 9.16217 78.2663 9.16217C79.0343 9.16217 79.717 9.31683 80.3143 9.62617C80.9223 9.92483 81.3917 10.3728 81.7224 10.9702L80.5543 11.7222C80.277 11.3062 79.9357 11.0022 79.5303 10.8102C79.1357 10.6075 78.709 10.5062 78.2503 10.5062C77.6957 10.5062 77.1997 10.6288 76.7623 10.8742C76.325 11.1195 75.9783 11.4662 75.7223 11.9142C75.4663 12.3515 75.3383 12.8742 75.3383 13.4822C75.3383 14.0902 75.4663 14.6182 75.7223 15.0662C75.9783 15.5142 76.325 15.8608 76.7623 16.1062C77.1997 16.3515 77.6957 16.4742 78.2503 16.4742C78.709 16.4742 79.1357 16.3782 79.5303 16.1862C79.9357 15.9835 80.277 15.6742 80.5543 15.2582L81.7224 15.9942C81.3917 16.5808 80.9223 17.0342 80.3143 17.3542C79.717 17.6635 79.0343 17.8182 78.2663 17.8182ZM83.2157 17.7222V9.24217H84.7517V17.7222H83.2157ZM83.9837 7.61017C83.6851 7.61017 83.4344 7.51417 83.2317 7.32217C83.0397 7.13017 82.9437 6.8955 82.9437 6.61817C82.9437 6.33017 83.0397 6.09017 83.2317 5.89817C83.4344 5.70617 83.6851 5.61017 83.9837 5.61017C84.2824 5.61017 84.5277 5.70617 84.7197 5.89817C84.9224 6.0795 85.0237 6.30883 85.0237 6.58617C85.0237 6.87417 84.9277 7.1195 84.7357 7.32217C84.5437 7.51417 84.2931 7.61017 83.9837 7.61017ZM90.9306 17.8182C90.0773 17.8182 89.3199 17.6315 88.6586 17.2582C87.9973 16.8848 87.4746 16.3728 87.0906 15.7222C86.7066 15.0608 86.5146 14.3142 86.5146 13.4822C86.5146 12.6395 86.7066 11.8928 87.0906 11.2422C87.4746 10.5915 87.9973 10.0848 88.6586 9.72217C89.3199 9.34883 90.0773 9.16217 90.9306 9.16217C91.7733 9.16217 92.5253 9.34883 93.1866 9.72217C93.8586 10.0848 94.3813 10.5915 94.7546 11.2422C95.1386 11.8822 95.3306 12.6288 95.3306 13.4822C95.3306 14.3248 95.1386 15.0715 94.7546 15.7222C94.3813 16.3728 93.8586 16.8848 93.1866 17.2582C92.5253 17.6315 91.7733 17.8182 90.9306 17.8182ZM90.9306 16.4742C91.4746 16.4742 91.9599 16.3515 92.3866 16.1062C92.8239 15.8608 93.1653 15.5142 93.4106 15.0662C93.6559 14.6075 93.7786 14.0795 93.7786 13.4822C93.7786 12.8742 93.6559 12.3515 93.4106 11.9142C93.1653 11.4662 92.8239 11.1195 92.3866 10.8742C91.9599 10.6288 91.4746 10.5062 90.9306 10.5062C90.3866 10.5062 89.9013 10.6288 89.4746 10.8742C89.0479 11.1195 88.7066 11.4662 88.4506 11.9142C88.1946 12.3515 88.0666 12.8742 88.0666 13.4822C88.0666 14.0795 88.1946 14.6075 88.4506 15.0662C88.7066 15.5142 89.0479 15.8608 89.4746 16.1062C89.9013 16.3515 90.3866 16.4742 90.9306 16.4742ZM101.597 9.16217C102.29 9.16217 102.898 9.2955 103.421 9.56217C103.954 9.82883 104.37 10.2342 104.669 10.7782C104.968 11.3222 105.117 12.0102 105.117 12.8422V17.7222H103.581V13.0182C103.581 12.1968 103.378 11.5782 102.973 11.1622C102.578 10.7462 102.018 10.5382 101.293 10.5382C100.749 10.5382 100.274 10.6448 99.869 10.8582C99.4636 11.0715 99.149 11.3862 98.925 11.8022C98.7116 12.2182 98.605 12.7355 98.605 13.3542V17.7222H97.069V9.24217H98.541V11.5302L98.301 10.9222C98.5783 10.3675 99.005 9.9355 99.581 9.62617C100.157 9.31683 100.829 9.16217 101.597 9.16217ZM112.838 17.7222V15.9302L112.758 15.5942V12.5382C112.758 11.8875 112.566 11.3862 112.182 11.0342C111.808 10.6715 111.243 10.4902 110.486 10.4902C109.984 10.4902 109.494 10.5755 109.014 10.7462C108.534 10.9062 108.128 11.1248 107.798 11.4022L107.158 10.2502C107.595 9.89817 108.118 9.6315 108.726 9.45017C109.344 9.25817 109.99 9.16217 110.662 9.16217C111.824 9.16217 112.72 9.44483 113.35 10.0102C113.979 10.5755 114.294 11.4395 114.294 12.6022V17.7222H112.838ZM110.054 17.8182C109.424 17.8182 108.87 17.7115 108.39 17.4982C107.92 17.2848 107.558 16.9915 107.302 16.6182C107.046 16.2342 106.918 15.8022 106.918 15.3222C106.918 14.8635 107.024 14.4475 107.238 14.0742C107.462 13.7008 107.819 13.4022 108.31 13.1782C108.811 12.9542 109.483 12.8422 110.326 12.8422H113.014V13.9462H110.39C109.622 13.9462 109.104 14.0742 108.838 14.3302C108.571 14.5862 108.438 14.8955 108.438 15.2582C108.438 15.6742 108.603 16.0102 108.934 16.2662C109.264 16.5115 109.723 16.6342 110.31 16.6342C110.886 16.6342 111.387 16.5062 111.814 16.2502C112.251 15.9942 112.566 15.6208 112.758 15.1302L113.062 16.1862C112.859 16.6875 112.502 17.0875 111.99 17.3862C111.478 17.6742 110.832 17.8182 110.054 17.8182ZM116.75 17.7222V5.85017H118.286V17.7222H116.75Z" fill="#919191"/>
<ellipse cx="4.81659" cy="11.7999" rx="4.79511" ry="4.75556" fill="#6C5F8D"/>
<path d="M23.9809 58.1444L29.0529 46.9444H30.6369L35.7249 58.1444H34.0449L29.5169 47.8404H30.1569L25.6289 58.1444H23.9809ZM26.1409 55.3444L26.5729 54.0644H32.8769L33.3409 55.3444H26.1409ZM36.7858 58.1444V46.2724H38.3218V58.1444H36.7858ZM40.8686 58.1444V49.6644H42.4046V58.1444H40.8686ZM41.6366 48.0324C41.338 48.0324 41.0873 47.9364 40.8846 47.7444C40.6926 47.5524 40.5966 47.3177 40.5966 47.0404C40.5966 46.7524 40.6926 46.5124 40.8846 46.3204C41.0873 46.1284 41.338 46.0324 41.6366 46.0324C41.9353 46.0324 42.1806 46.1284 42.3726 46.3204C42.5753 46.5017 42.6766 46.7311 42.6766 47.0084C42.6766 47.2964 42.5806 47.5417 42.3886 47.7444C42.1966 47.9364 41.946 48.0324 41.6366 48.0324ZM55.5595 49.5844C56.2422 49.5844 56.8448 49.7177 57.3675 49.9844C57.8902 50.2511 58.2955 50.6564 58.5835 51.2004C58.8822 51.7444 59.0315 52.4324 59.0315 53.2644V58.1444H57.4955V53.4404C57.4955 52.6191 57.3035 52.0004 56.9195 51.5844C56.5355 51.1684 55.9968 50.9604 55.3035 50.9604C54.7915 50.9604 54.3435 51.0671 53.9595 51.2804C53.5755 51.4937 53.2768 51.8084 53.0635 52.2244C52.8608 52.6404 52.7595 53.1577 52.7595 53.7764V58.1444H51.2235V53.4404C51.2235 52.6191 51.0315 52.0004 50.6475 51.5844C50.2742 51.1684 49.7355 50.9604 49.0315 50.9604C48.5302 50.9604 48.0875 51.0671 47.7035 51.2804C47.3195 51.4937 47.0208 51.8084 46.8075 52.2244C46.5942 52.6404 46.4875 53.1577 46.4875 53.7764V58.1444H44.9515V49.6644H46.4235V51.9204L46.1835 51.3444C46.4502 50.7897 46.8608 50.3577 47.4155 50.0484C47.9702 49.7391 48.6155 49.5844 49.3515 49.5844C50.1622 49.5844 50.8608 49.7871 51.4475 50.1924C52.0342 50.5871 52.4182 51.1897 52.5995 52.0004L51.9755 51.7444C52.2315 51.0937 52.6795 50.5711 53.3195 50.1764C53.9595 49.7817 54.7062 49.5844 55.5595 49.5844ZM65.2479 58.2404C64.3412 58.2404 63.5412 58.0537 62.8479 57.6804C62.1652 57.3071 61.6319 56.7951 61.2479 56.1444C60.8745 55.4937 60.6879 54.7471 60.6879 53.9044C60.6879 53.0617 60.8692 52.3151 61.2319 51.6644C61.6052 51.0137 62.1119 50.5071 62.7519 50.1444C63.4025 49.7711 64.1332 49.5844 64.9439 49.5844C65.7652 49.5844 66.4905 49.7657 67.1199 50.1284C67.7492 50.4911 68.2399 51.0031 68.5919 51.6644C68.9545 52.3151 69.1359 53.0777 69.1359 53.9524C69.1359 54.0164 69.1305 54.0911 69.1199 54.1764C69.1199 54.2617 69.1145 54.3417 69.1039 54.4164H61.8879V53.3124H68.3039L67.6799 53.6964C67.6905 53.1524 67.5785 52.6671 67.3439 52.2404C67.1092 51.8137 66.7839 51.4831 66.3679 51.2484C65.9625 51.0031 65.4879 50.8804 64.9439 50.8804C64.4105 50.8804 63.9359 51.0031 63.5199 51.2484C63.1039 51.4831 62.7785 51.8191 62.5439 52.2564C62.3092 52.6831 62.1919 53.1737 62.1919 53.7284V53.9844C62.1919 54.5497 62.3199 55.0564 62.5759 55.5044C62.8425 55.9417 63.2105 56.2831 63.6799 56.5284C64.1492 56.7737 64.6879 56.8964 65.2959 56.8964C65.7972 56.8964 66.2505 56.8111 66.6559 56.6404C67.0719 56.4697 67.4345 56.2137 67.7439 55.8724L68.5919 56.8644C68.2079 57.3124 67.7279 57.6537 67.1519 57.8884C66.5865 58.1231 65.9519 58.2404 65.2479 58.2404ZM75.4108 49.5844C76.1042 49.5844 76.7122 49.7177 77.2348 49.9844C77.7682 50.2511 78.1842 50.6564 78.4829 51.2004C78.7815 51.7444 78.9309 52.4324 78.9309 53.2644V58.1444H77.3948V53.4404C77.3948 52.6191 77.1922 52.0004 76.7868 51.5844C76.3922 51.1684 75.8322 50.9604 75.1068 50.9604C74.5628 50.9604 74.0882 51.0671 73.6828 51.2804C73.2775 51.4937 72.9628 51.8084 72.7388 52.2244C72.5255 52.6404 72.4188 53.1577 72.4188 53.7764V58.1444H70.8828V49.6644H72.3548V51.9524L72.1148 51.3444C72.3922 50.7897 72.8188 50.3577 73.3948 50.0484C73.9708 49.7391 74.6428 49.5844 75.4108 49.5844ZM84.2996 58.2404C83.4463 58.2404 82.7849 58.0111 82.3156 57.5524C81.8463 57.0937 81.6116 56.4377 81.6116 55.5844V47.8084H83.1476V55.5204C83.1476 55.9791 83.2596 56.3311 83.4836 56.5764C83.7183 56.8217 84.0489 56.9444 84.4756 56.9444C84.9556 56.9444 85.3556 56.8111 85.6756 56.5444L86.1556 57.6484C85.9209 57.8511 85.6383 58.0004 85.3076 58.0964C84.9876 58.1924 84.6516 58.2404 84.2996 58.2404ZM80.1716 50.9284V49.6644H85.5796V50.9284H80.1716ZM92.8907 58.1444V56.3524L92.8107 56.0164V52.9604C92.8107 52.3097 92.6187 51.8084 92.2347 51.4564C91.8614 51.0937 91.296 50.9124 90.5387 50.9124C90.0374 50.9124 89.5467 50.9977 89.0667 51.1684C88.5867 51.3284 88.1814 51.5471 87.8507 51.8244L87.2107 50.6724C87.648 50.3204 88.1707 50.0537 88.7787 49.8724C89.3974 49.6804 90.0427 49.5844 90.7147 49.5844C91.8774 49.5844 92.7734 49.8671 93.4027 50.4324C94.032 50.9977 94.3467 51.8617 94.3467 53.0244V58.1444H92.8907ZM90.1067 58.2404C89.4774 58.2404 88.9227 58.1337 88.4427 57.9204C87.9734 57.7071 87.6107 57.4137 87.3547 57.0404C87.0987 56.6564 86.9707 56.2244 86.9707 55.7444C86.9707 55.2857 87.0774 54.8697 87.2907 54.4964C87.5147 54.1231 87.872 53.8244 88.3627 53.6004C88.864 53.3764 89.536 53.2644 90.3787 53.2644H93.0667V54.3684H90.4427C89.6747 54.3684 89.1574 54.4964 88.8907 54.7524C88.624 55.0084 88.4907 55.3177 88.4907 55.6804C88.4907 56.0964 88.656 56.4324 88.9867 56.6884C89.3174 56.9337 89.776 57.0564 90.3627 57.0564C90.9387 57.0564 91.44 56.9284 91.8667 56.6724C92.304 56.4164 92.6187 56.0431 92.8107 55.5524L93.1147 56.6084C92.912 57.1097 92.5547 57.5097 92.0427 57.8084C91.5307 58.0964 90.8854 58.2404 90.1067 58.2404ZM100.499 58.2404C99.6353 58.2404 98.862 58.0537 98.1793 57.6804C97.5073 57.3071 96.9793 56.7951 96.5953 56.1444C96.2113 55.4937 96.0193 54.7471 96.0193 53.9044C96.0193 53.0617 96.2113 52.3151 96.5953 51.6644C96.9793 51.0137 97.5073 50.5071 98.1793 50.1444C98.862 49.7711 99.6353 49.5844 100.499 49.5844C101.267 49.5844 101.95 49.7391 102.547 50.0484C103.155 50.3471 103.625 50.7951 103.955 51.3924L102.787 52.1444C102.51 51.7284 102.169 51.4244 101.763 51.2324C101.369 51.0297 100.942 50.9284 100.483 50.9284C99.9287 50.9284 99.4327 51.0511 98.9953 51.2964C98.558 51.5417 98.2113 51.8884 97.9553 52.3364C97.6993 52.7737 97.5713 53.2964 97.5713 53.9044C97.5713 54.5124 97.6993 55.0404 97.9553 55.4884C98.2113 55.9364 98.558 56.2831 98.9953 56.5284C99.4327 56.7737 99.9287 56.8964 100.483 56.8964C100.942 56.8964 101.369 56.8004 101.763 56.6084C102.169 56.4057 102.51 56.0964 102.787 55.6804L103.955 56.4164C103.625 57.0031 103.155 57.4564 102.547 57.7764C101.95 58.0857 101.267 58.2404 100.499 58.2404ZM99.7473 61.7284C99.47 61.7284 99.214 61.6964 98.9793 61.6324C98.7447 61.5791 98.526 61.4937 98.3233 61.3764L98.6593 60.5924C98.83 60.6884 99.0007 60.7577 99.1713 60.8004C99.3527 60.8431 99.5447 60.8644 99.7473 60.8644C100.057 60.8644 100.281 60.8057 100.419 60.6884C100.569 60.5817 100.643 60.4271 100.643 60.2244C100.643 60.0324 100.569 59.8777 100.419 59.7604C100.281 59.6537 100.051 59.6004 99.7313 59.6004H99.2993L99.6993 58.0324H100.579L100.339 58.9444C100.798 58.9871 101.145 59.1311 101.379 59.3764C101.614 59.6217 101.731 59.9204 101.731 60.2724C101.731 60.7204 101.55 61.0724 101.187 61.3284C100.825 61.5951 100.345 61.7284 99.7473 61.7284ZM110.822 58.1444V56.3524L110.742 56.0164V52.9604C110.742 52.3097 110.55 51.8084 110.166 51.4564C109.793 51.0937 109.227 50.9124 108.47 50.9124C107.969 50.9124 107.478 50.9977 106.998 51.1684C106.518 51.3284 106.113 51.5471 105.782 51.8244L105.142 50.6724C105.579 50.3204 106.102 50.0537 106.71 49.8724C107.329 49.6804 107.974 49.5844 108.646 49.5844C109.809 49.5844 110.705 49.8671 111.334 50.4324C111.963 50.9977 112.278 51.8617 112.278 53.0244V58.1444H110.822ZM108.038 58.2404C107.409 58.2404 106.854 58.1337 106.374 57.9204C105.905 57.7071 105.542 57.4137 105.286 57.0404C105.03 56.6564 104.902 56.2244 104.902 55.7444C104.902 55.2857 105.009 54.8697 105.222 54.4964C105.446 54.1231 105.803 53.8244 106.294 53.6004C106.795 53.3764 107.467 53.2644 108.31 53.2644H110.998V54.3684H108.374C107.606 54.3684 107.089 54.4964 106.822 54.7524C106.555 55.0084 106.422 55.3177 106.422 55.6804C106.422 56.0964 106.587 56.4324 106.918 56.6884C107.249 56.9337 107.707 57.0564 108.294 57.0564C108.87 57.0564 109.371 56.9284 109.798 56.6724C110.235 56.4164 110.55 56.0431 110.742 55.5524L111.046 56.6084C110.843 57.1097 110.486 57.5097 109.974 57.8084C109.462 58.0964 108.817 58.2404 108.038 58.2404ZM109.878 48.3844C109.622 48.3844 109.393 48.3311 109.19 48.2244C108.998 48.1177 108.822 47.9951 108.662 47.8564C108.502 47.7071 108.347 47.5791 108.198 47.4724C108.049 47.3657 107.899 47.3124 107.75 47.3124C107.515 47.3124 107.323 47.4031 107.174 47.5844C107.035 47.7551 106.955 47.9951 106.934 48.3044H106.07C106.091 47.7071 106.241 47.2324 106.518 46.8804C106.795 46.5284 107.169 46.3524 107.638 46.3524C107.894 46.3524 108.123 46.4111 108.326 46.5284C108.529 46.6351 108.71 46.7631 108.87 46.9124C109.03 47.0511 109.179 47.1737 109.318 47.2804C109.467 47.3871 109.617 47.4404 109.766 47.4404C110.001 47.4404 110.193 47.3551 110.342 47.1844C110.491 47.0137 110.571 46.7791 110.582 46.4804H111.446C111.435 47.0457 111.286 47.5044 110.998 47.8564C110.721 48.2084 110.347 48.3844 109.878 48.3844ZM118.367 58.2404C117.513 58.2404 116.756 58.0537 116.095 57.6804C115.433 57.3071 114.911 56.7951 114.527 56.1444C114.143 55.4831 113.951 54.7364 113.951 53.9044C113.951 53.0617 114.143 52.3151 114.527 51.6644C114.911 51.0137 115.433 50.5071 116.095 50.1444C116.756 49.7711 117.513 49.5844 118.367 49.5844C119.209 49.5844 119.961 49.7711 120.623 50.1444C121.295 50.5071 121.817 51.0137 122.191 51.6644C122.575 52.3044 122.767 53.0511 122.767 53.9044C122.767 54.7471 122.575 55.4937 122.191 56.1444C121.817 56.7951 121.295 57.3071 120.623 57.6804C119.961 58.0537 119.209 58.2404 118.367 58.2404ZM118.367 56.8964C118.911 56.8964 119.396 56.7737 119.823 56.5284C120.26 56.2831 120.601 55.9364 120.847 55.4884C121.092 55.0297 121.215 54.5017 121.215 53.9044C121.215 53.2964 121.092 52.7737 120.847 52.3364C120.601 51.8884 120.26 51.5417 119.823 51.2964C119.396 51.0511 118.911 50.9284 118.367 50.9284C117.823 50.9284 117.337 51.0511 116.911 51.2964C116.484 51.5417 116.143 51.8884 115.887 52.3364C115.631 52.7737 115.503 53.2964 115.503 53.9044C115.503 54.5017 115.631 55.0297 115.887 55.4884C116.143 55.9364 116.484 56.2831 116.911 56.5284C117.337 56.7737 117.823 56.8964 118.367 56.8964Z" fill="#919191"/>
<ellipse cx="4.81659" cy="52.2222" rx="4.79511" ry="4.75556" fill="#F9D048"/>
<path d="M30.6849 98.6947C29.8316 98.6947 29.0422 98.556 28.3169 98.2787C27.6022 97.9907 26.9782 97.5907 26.4449 97.0787C25.9222 96.556 25.5116 95.948 25.2129 95.2547C24.9142 94.5613 24.7649 93.7987 24.7649 92.9667C24.7649 92.1346 24.9142 91.372 25.2129 90.6786C25.5116 89.9853 25.9276 89.3827 26.4609 88.8707C26.9942 88.348 27.6182 87.948 28.3329 87.6706C29.0582 87.3827 29.8476 87.2387 30.7009 87.2387C31.5649 87.2387 32.3596 87.388 33.0849 87.6867C33.8209 87.9746 34.4449 88.4066 34.9569 88.9826L33.9169 89.9907C33.4902 89.5427 33.0102 89.212 32.4769 88.9986C31.9436 88.7746 31.3729 88.6627 30.7649 88.6627C30.1356 88.6627 29.5489 88.7693 29.0049 88.9826C28.4716 89.196 28.0076 89.4946 27.6129 89.8786C27.2182 90.2626 26.9089 90.7213 26.6849 91.2547C26.4716 91.7773 26.3649 92.348 26.3649 92.9667C26.3649 93.5853 26.4716 94.1613 26.6849 94.6947C26.9089 95.2173 27.2182 95.6707 27.6129 96.0547C28.0076 96.4387 28.4716 96.7373 29.0049 96.9507C29.5489 97.164 30.1356 97.2707 30.7649 97.2707C31.3729 97.2707 31.9436 97.164 32.4769 96.9507C33.0102 96.7267 33.4902 96.3853 33.9169 95.9267L34.9569 96.9347C34.4449 97.5107 33.8209 97.948 33.0849 98.2467C32.3596 98.5453 31.5596 98.6947 30.6849 98.6947ZM39.9319 98.6627C39.2065 98.6627 38.5665 98.5293 38.0119 98.2627C37.4679 97.996 37.0412 97.5907 36.7319 97.0467C36.4332 96.492 36.2839 95.7987 36.2839 94.9667V90.0866H37.8199V94.7907C37.8199 95.6227 38.0172 96.2467 38.4119 96.6627C38.8172 97.0787 39.3825 97.2867 40.1079 97.2867C40.6412 97.2867 41.1052 97.18 41.4999 96.9667C41.8945 96.7427 42.1985 96.4227 42.4119 96.0067C42.6252 95.58 42.7319 95.068 42.7319 94.4707V90.0866H44.2679V98.5667H42.8119V96.2787L43.0519 96.8867C42.7745 97.452 42.3585 97.8893 41.8039 98.1987C41.2492 98.508 40.6252 98.6627 39.9319 98.6627ZM46.8061 98.5667V90.0866H48.2781V92.3907L48.1341 91.8147C48.3688 91.228 48.7635 90.78 49.3181 90.4706C49.8728 90.1613 50.5555 90.0066 51.3661 90.0066V91.4946C51.3021 91.484 51.2381 91.4787 51.1741 91.4787C51.1208 91.4787 51.0675 91.4787 51.0141 91.4787C50.1928 91.4787 49.5421 91.724 49.0621 92.2147C48.5821 92.7053 48.3421 93.4147 48.3421 94.3427V98.5667H46.8061ZM55.3991 98.6627C54.6951 98.6627 54.0231 98.5667 53.3831 98.3747C52.7538 98.1827 52.2578 97.948 51.8951 97.6707L52.5351 96.4547C52.8978 96.7 53.3458 96.908 53.8791 97.0787C54.4124 97.2493 54.9564 97.3347 55.5111 97.3347C56.2258 97.3347 56.7378 97.2333 57.0471 97.0307C57.3671 96.828 57.5271 96.5453 57.5271 96.1827C57.5271 95.916 57.4311 95.708 57.2391 95.5587C57.0471 95.4093 56.7911 95.2973 56.4711 95.2227C56.1618 95.148 55.8151 95.084 55.4311 95.0307C55.0471 94.9667 54.6631 94.892 54.2791 94.8067C53.8951 94.7107 53.5431 94.5827 53.2231 94.4227C52.9031 94.252 52.6471 94.0227 52.4551 93.7347C52.2631 93.436 52.1671 93.0413 52.1671 92.5507C52.1671 92.0387 52.3111 91.5907 52.5991 91.2067C52.8871 90.8227 53.2924 90.5293 53.8151 90.3266C54.3484 90.1133 54.9778 90.0066 55.7031 90.0066C56.2578 90.0066 56.8178 90.076 57.3831 90.2147C57.9591 90.3426 58.4284 90.5293 58.7911 90.7747L58.1351 91.9907C57.7511 91.7346 57.3511 91.5586 56.9351 91.4626C56.5191 91.3667 56.1031 91.3187 55.6871 91.3187C55.0151 91.3187 54.5138 91.4307 54.1831 91.6547C53.8524 91.868 53.6871 92.1453 53.6871 92.4866C53.6871 92.7747 53.7831 92.9987 53.9751 93.1586C54.1778 93.308 54.4338 93.4253 54.7431 93.5107C55.0631 93.596 55.4151 93.6707 55.7991 93.7347C56.1831 93.788 56.5671 93.8627 56.9511 93.9587C57.3351 94.044 57.6818 94.1667 57.9911 94.3267C58.3111 94.4867 58.5671 94.7107 58.7591 94.9987C58.9618 95.2867 59.0631 95.6707 59.0631 96.1507C59.0631 96.6627 58.9138 97.1053 58.6151 97.4787C58.3164 97.852 57.8951 98.1453 57.3511 98.3587C56.8071 98.5613 56.1564 98.6627 55.3991 98.6627ZM64.2289 98.6627C63.3755 98.6627 62.6182 98.476 61.9569 98.1027C61.2955 97.7293 60.7729 97.2173 60.3889 96.5667C60.0049 95.9053 59.8129 95.1587 59.8129 94.3267C59.8129 93.484 60.0049 92.7373 60.3889 92.0866C60.7729 91.436 61.2955 90.9293 61.9569 90.5667C62.6182 90.1933 63.3755 90.0066 64.2289 90.0066C65.0715 90.0066 65.8235 90.1933 66.4849 90.5667C67.1569 90.9293 67.6795 91.436 68.0529 92.0866C68.4369 92.7266 68.6289 93.4733 68.6289 94.3267C68.6289 95.1693 68.4369 95.916 68.0529 96.5667C67.6795 97.2173 67.1569 97.7293 66.4849 98.1027C65.8235 98.476 65.0715 98.6627 64.2289 98.6627ZM64.2289 97.3187C64.7729 97.3187 65.2582 97.196 65.6849 96.9507C66.1222 96.7053 66.4635 96.3587 66.7089 95.9107C66.9542 95.452 67.0769 94.924 67.0769 94.3267C67.0769 93.7187 66.9542 93.196 66.7089 92.7587C66.4635 92.3107 66.1222 91.964 65.6849 91.7186C65.2582 91.4733 64.7729 91.3506 64.2289 91.3506C63.6849 91.3506 63.1995 91.4733 62.7729 91.7186C62.3462 91.964 62.0049 92.3107 61.7489 92.7587C61.4929 93.196 61.3649 93.7187 61.3649 94.3267C61.3649 94.924 61.4929 95.452 61.7489 95.9107C62.0049 96.3587 62.3462 96.7053 62.7729 96.9507C63.1995 97.196 63.6849 97.3187 64.2289 97.3187ZM72.7992 98.6627C72.0952 98.6627 71.4232 98.5667 70.7832 98.3747C70.1539 98.1827 69.6579 97.948 69.2952 97.6707L69.9352 96.4547C70.2979 96.7 70.7459 96.908 71.2792 97.0787C71.8126 97.2493 72.3566 97.3347 72.9112 97.3347C73.6259 97.3347 74.1379 97.2333 74.4472 97.0307C74.7672 96.828 74.9272 96.5453 74.9272 96.1827C74.9272 95.916 74.8312 95.708 74.6392 95.5587C74.4472 95.4093 74.1912 95.2973 73.8712 95.2227C73.5619 95.148 73.2152 95.084 72.8312 95.0307C72.4472 94.9667 72.0632 94.892 71.6792 94.8067C71.2952 94.7107 70.9432 94.5827 70.6232 94.4227C70.3032 94.252 70.0472 94.0227 69.8552 93.7347C69.6632 93.436 69.5672 93.0413 69.5672 92.5507C69.5672 92.0387 69.7112 91.5907 69.9992 91.2067C70.2872 90.8227 70.6926 90.5293 71.2152 90.3266C71.7486 90.1133 72.3779 90.0066 73.1032 90.0066C73.6579 90.0066 74.2179 90.076 74.7832 90.2147C75.3592 90.3426 75.8286 90.5293 76.1912 90.7747L75.5352 91.9907C75.1512 91.7346 74.7512 91.5586 74.3352 91.4626C73.9192 91.3667 73.5032 91.3187 73.0872 91.3187C72.4152 91.3187 71.9139 91.4307 71.5832 91.6547C71.2526 91.868 71.0872 92.1453 71.0872 92.4866C71.0872 92.7747 71.1832 92.9987 71.3752 93.1586C71.5779 93.308 71.8339 93.4253 72.1432 93.5107C72.4632 93.596 72.8152 93.6707 73.1992 93.7347C73.5832 93.788 73.9672 93.8627 74.3512 93.9587C74.7352 94.044 75.0819 94.1667 75.3912 94.3267C75.7112 94.4867 75.9672 94.7107 76.1592 94.9987C76.3619 95.2867 76.4632 95.6707 76.4632 96.1507C76.4632 96.6627 76.3139 97.1053 76.0152 97.4787C75.7166 97.852 75.2952 98.1453 74.7512 98.3587C74.2072 98.5613 73.5566 98.6627 72.7992 98.6627Z" fill="#919191"/>
<ellipse cx="4.81659" cy="92.6445" rx="4.79511" ry="4.75556" fill="#C5A4DB"/>
</svg>
