<svg width="128" height="127" viewBox="0 0 128 127" fill="none" xmlns="http://www.w3.org/2000/svg">
<path d="M119.301 63.2224C119.301 93.5699 94.4767 118.284 63.7156 118.284C32.9546 118.284 8.13048 93.5699 8.13048 63.2224C8.13048 32.8749 32.9546 8.16118 63.7156 8.16118C94.4767 8.16118 119.301 32.8749 119.301 63.2224Z" stroke="#E5E5E5" stroke-width="15.9"/>
<mask id="path-2-inside-1_1112_9039" fill="white">
<path d="M63.7156 9.70666C63.7156 4.46245 67.9899 0.139014 73.1766 0.913642C82.9178 2.36848 92.2299 6.05739 100.349 11.74C111.068 19.2416 119.182 29.8497 123.578 42.1078C127.973 54.3659 128.436 67.673 124.901 80.202C121.366 92.731 114.007 103.868 103.834 112.083C93.6618 120.298 81.1747 125.189 68.0873 126.084C54.9999 126.979 41.9539 123.835 30.7406 117.083C19.5273 110.33 10.6965 100.301 5.46052 88.3718C1.51048 79.3724 -0.247453 69.6246 0.268309 59.9092C0.547882 54.6429 5.67671 51.3155 10.8428 52.3753C16.033 53.4401 19.2582 58.5471 19.3338 63.8448C19.4166 69.6489 20.6566 75.4119 23.018 80.792C26.6759 89.1258 32.8452 96.1323 40.679 100.85C48.5127 105.567 57.6267 107.764 66.7697 107.138C75.9127 106.513 84.6363 103.096 91.7429 97.3568C98.8494 91.6176 103.99 83.8374 106.46 75.0845C108.93 66.3316 108.607 57.0352 105.536 48.4715C102.465 39.9079 96.7961 32.497 89.3083 27.2563C84.4233 23.8374 78.9204 21.4515 73.1402 20.2059C68.0137 19.1011 63.7156 14.9509 63.7156 9.70666Z"/>
</mask>
<path d="M63.7156 9.70666C63.7156 4.46245 67.9899 0.139014 73.1766 0.913642C82.9178 2.36848 92.2299 6.05739 100.349 11.74C111.068 19.2416 119.182 29.8497 123.578 42.1078C127.973 54.3659 128.436 67.673 124.901 80.202C121.366 92.731 114.007 103.868 103.834 112.083C93.6618 120.298 81.1747 125.189 68.0873 126.084C54.9999 126.979 41.9539 123.835 30.7406 117.083C19.5273 110.33 10.6965 100.301 5.46052 88.3718C1.51048 79.3724 -0.247453 69.6246 0.268309 59.9092C0.547882 54.6429 5.67671 51.3155 10.8428 52.3753C16.033 53.4401 19.2582 58.5471 19.3338 63.8448C19.4166 69.6489 20.6566 75.4119 23.018 80.792C26.6759 89.1258 32.8452 96.1323 40.679 100.85C48.5127 105.567 57.6267 107.764 66.7697 107.138C75.9127 106.513 84.6363 103.096 91.7429 97.3568C98.8494 91.6176 103.99 83.8374 106.46 75.0845C108.93 66.3316 108.607 57.0352 105.536 48.4715C102.465 39.9079 96.7961 32.497 89.3083 27.2563C84.4233 23.8374 78.9204 21.4515 73.1402 20.2059C68.0137 19.1011 63.7156 14.9509 63.7156 9.70666Z" stroke="#C5A4DB" stroke-width="31.8" mask="url(#path-2-inside-1_1112_9039)"/>
<mask id="path-3-inside-2_1112_9039" fill="white">
<path d="M63.7156 9.70666C63.7156 4.46245 67.9898 0.139063 73.1765 0.913676C79.8223 1.90621 86.2876 3.94131 92.3242 6.96047C101.197 11.3981 108.897 17.8379 114.804 25.7625C120.712 33.687 124.663 42.8754 126.34 52.5893C128.017 62.3032 127.373 72.2718 124.46 81.694C121.546 91.1163 116.445 99.7295 109.567 106.842C102.688 113.954 94.2224 119.367 84.8511 122.645C75.4799 125.923 65.4639 126.976 55.608 125.718C48.9413 124.868 42.4736 122.976 36.4392 120.131C31.6575 117.877 30.5297 111.846 33.5098 107.48C36.4576 103.161 42.3192 102.138 47.1775 104.073C50.6558 105.458 54.3088 106.405 58.0515 106.883C64.937 107.761 71.9343 107.026 78.4811 104.736C85.0279 102.445 90.9418 98.6638 95.7475 93.6952C100.553 88.7266 104.117 82.7093 106.152 76.1268C108.187 69.5444 108.637 62.5802 107.465 55.794C106.294 49.0078 103.534 42.5887 99.4066 37.0525C95.2795 31.5163 89.9005 27.0174 83.7019 23.9173C80.3421 22.2369 76.7923 20.9929 73.1401 20.2059C68.0136 19.1011 63.7156 14.9509 63.7156 9.70666Z"/>
</mask>
<path d="M63.7156 9.70666C63.7156 4.46245 67.9898 0.139063 73.1765 0.913676C79.8223 1.90621 86.2876 3.94131 92.3242 6.96047C101.197 11.3981 108.897 17.8379 114.804 25.7625C120.712 33.687 124.663 42.8754 126.34 52.5893C128.017 62.3032 127.373 72.2718 124.46 81.694C121.546 91.1163 116.445 99.7295 109.567 106.842C102.688 113.954 94.2224 119.367 84.8511 122.645C75.4799 125.923 65.4639 126.976 55.608 125.718C48.9413 124.868 42.4736 122.976 36.4392 120.131C31.6575 117.877 30.5297 111.846 33.5098 107.48C36.4576 103.161 42.3192 102.138 47.1775 104.073C50.6558 105.458 54.3088 106.405 58.0515 106.883C64.937 107.761 71.9343 107.026 78.4811 104.736C85.0279 102.445 90.9418 98.6638 95.7475 93.6952C100.553 88.7266 104.117 82.7093 106.152 76.1268C108.187 69.5444 108.637 62.5802 107.465 55.794C106.294 49.0078 103.534 42.5887 99.4066 37.0525C95.2795 31.5163 89.9005 27.0174 83.7019 23.9173C80.3421 22.2369 76.7923 20.9929 73.1401 20.2059C68.0136 19.1011 63.7156 14.9509 63.7156 9.70666Z" stroke="#F9D048" stroke-width="31.8" mask="url(#path-3-inside-2_1112_9039)"/>
<mask id="path-4-inside-3_1112_9039" fill="white">
<path d="M63.7156 9.70666C63.7156 4.46245 67.9898 0.13907 73.1765 0.913677C78.9184 1.77121 84.5297 3.4076 89.8496 5.78855C98.0636 9.46472 105.395 14.8318 111.357 21.5333C117.319 28.2349 121.776 36.1176 124.431 44.6582C126.137 50.1463 127.074 55.8253 127.228 61.5367C127.37 66.8143 122.515 70.5415 117.276 69.8894C112.022 69.2353 108.406 64.4036 107.91 59.1321C107.627 56.1281 107.033 53.1526 106.132 50.2533C104.277 44.2867 101.164 38.7798 96.9985 34.098C92.8332 29.4162 87.7114 25.6668 81.9731 23.0985C79.1311 21.8266 76.17 20.8588 73.1401 20.2059C68.0136 19.1011 63.7156 14.9509 63.7156 9.70666Z"/>
</mask>
<path d="M63.7156 9.70666C63.7156 4.46245 67.9898 0.13907 73.1765 0.913677C78.9184 1.77121 84.5297 3.4076 89.8496 5.78855C98.0636 9.46472 105.395 14.8318 111.357 21.5333C117.319 28.2349 121.776 36.1176 124.431 44.6582C126.137 50.1463 127.074 55.8253 127.228 61.5367C127.37 66.8143 122.515 70.5415 117.276 69.8894C112.022 69.2353 108.406 64.4036 107.91 59.1321C107.627 56.1281 107.033 53.1526 106.132 50.2533C104.277 44.2867 101.164 38.7798 96.9985 34.098C92.8332 29.4162 87.7114 25.6668 81.9731 23.0985C79.1311 21.8266 76.17 20.8588 73.1401 20.2059C68.0136 19.1011 63.7156 14.9509 63.7156 9.70666Z" stroke="#6C5F8D" stroke-width="31.8" mask="url(#path-4-inside-3_1112_9039)"/>
<path d="M50.2594 69.8946C49.2056 69.8946 48.2944 69.7397 47.5257 69.4297C46.757 69.1198 46.162 68.6797 45.7404 68.1094C45.3189 67.5267 45.1082 66.8448 45.1082 66.0637C45.1082 65.2951 45.3065 64.6442 45.7032 64.1111C46.1124 63.5656 46.7013 63.1565 47.4699 62.8837C48.2386 62.5986 49.1684 62.456 50.2594 62.456C51.3504 62.456 52.2802 62.5986 53.0489 62.8837C53.8299 63.1565 54.425 63.5656 54.8341 64.1111C55.2432 64.6566 55.4478 65.3075 55.4478 66.0637C55.4478 66.8448 55.237 67.5267 54.8155 68.1094C54.394 68.6797 53.7927 69.1198 53.0117 69.4297C52.2306 69.7397 51.3132 69.8946 50.2594 69.8946ZM50.2594 68.3883C51.3008 68.3883 52.1128 68.1775 52.6955 67.756C53.2906 67.3221 53.5882 66.7394 53.5882 66.008C53.5882 65.2889 53.2906 64.7248 52.6955 64.3157C52.1128 63.8942 51.3008 63.6834 50.2594 63.6834C49.2304 63.6834 48.4245 63.8942 47.8418 64.3157C47.2591 64.7248 46.9678 65.2889 46.9678 66.008C46.9678 66.7394 47.2591 67.3221 47.8418 67.756C48.4245 68.1775 49.2304 68.3883 50.2594 68.3883ZM50.2594 63.4602C49.2676 63.4602 48.4245 63.3301 47.7303 63.0697C47.036 62.797 46.5029 62.4126 46.131 61.9167C45.759 61.4084 45.5731 60.8071 45.5731 60.1129C45.5731 59.3814 45.7652 58.7553 46.1496 58.2346C46.5463 57.7015 47.098 57.2924 47.8046 57.0073C48.5113 56.7221 49.3296 56.5795 50.2594 56.5795C51.2016 56.5795 52.026 56.7221 52.7327 57.0073C53.4394 57.2924 53.9911 57.7015 54.3878 58.2346C54.7845 58.7553 54.9829 59.3814 54.9829 60.1129C54.9829 60.8071 54.7969 61.4084 54.425 61.9167C54.0531 62.4126 53.5138 62.797 52.8071 63.0697C52.1004 63.3301 51.2512 63.4602 50.2594 63.4602ZM50.2594 62.2701C51.1644 62.2701 51.8711 62.0841 52.3794 61.7122C52.9001 61.3402 53.1604 60.8319 53.1604 60.1873C53.1604 59.5302 52.8939 59.0157 52.3608 58.6437C51.8277 58.2718 51.1272 58.0858 50.2594 58.0858C49.3915 58.0858 48.6973 58.2718 48.1766 58.6437C47.6683 59.0157 47.4141 59.5302 47.4141 60.1873C47.4141 60.8319 47.6621 61.3402 48.158 61.7122C48.6663 62.0841 49.3667 62.2701 50.2594 62.2701ZM57.1887 66.5473V65.2455L63.8462 56.7283H65.8546L59.2529 65.2455L58.3045 64.948H68.6999V66.5473H57.1887ZM64.4227 69.7458V66.5473L64.4785 64.948V62.1213H66.2266V69.7458H64.4227ZM71.2612 69.7458L80.1503 56.7283H81.5823L72.6931 69.7458H71.2612ZM72.3026 63.7206C71.7075 63.7206 71.1806 63.5718 70.7219 63.2743C70.2632 62.9767 69.9037 62.5614 69.6433 62.0283C69.3954 61.4952 69.2714 60.8753 69.2714 60.1687C69.2714 59.462 69.3954 58.8421 69.6433 58.309C69.9037 57.7759 70.2632 57.3606 70.7219 57.063C71.1806 56.7655 71.7075 56.6167 72.3026 56.6167C72.9101 56.6167 73.437 56.7655 73.8833 57.063C74.342 57.3606 74.6954 57.7759 74.9433 58.309C75.1913 58.8421 75.3153 59.462 75.3153 60.1687C75.3153 60.8753 75.1913 61.4952 74.9433 62.0283C74.6954 62.5614 74.342 62.9767 73.8833 63.2743C73.437 63.5718 72.9101 63.7206 72.3026 63.7206ZM72.3026 62.6606C72.8729 62.6606 73.3192 62.4436 73.6416 62.0097C73.9639 61.5634 74.1251 60.9497 74.1251 60.1687C74.1251 59.3876 73.9639 58.7801 73.6416 58.3462C73.3192 57.8999 72.8729 57.6767 72.3026 57.6767C71.7447 57.6767 71.2984 57.8999 70.9637 58.3462C70.6413 58.7801 70.4802 59.3876 70.4802 60.1687C70.4802 60.9373 70.6413 61.5448 70.9637 61.9911C71.2984 62.4374 71.7447 62.6606 72.3026 62.6606ZM80.5409 69.8574C79.9458 69.8574 79.4189 69.7087 78.9602 69.4111C78.5015 69.1136 78.1481 68.6982 77.9002 68.1651C77.6522 67.632 77.5282 67.0122 77.5282 66.3055C77.5282 65.5988 77.6522 64.9789 77.9002 64.4458C78.1481 63.9128 78.5015 63.4974 78.9602 63.1999C79.4189 62.9023 79.9458 62.7536 80.5409 62.7536C81.1484 62.7536 81.6753 62.9023 82.1216 63.1999C82.5803 63.4974 82.9336 63.9128 83.1816 64.4458C83.4419 64.9789 83.5721 65.5988 83.5721 66.3055C83.5721 67.0122 83.4419 67.632 83.1816 68.1651C82.9336 68.6982 82.5803 69.1136 82.1216 69.4111C81.6753 69.7087 81.1484 69.8574 80.5409 69.8574ZM80.5409 68.7974C81.0988 68.7974 81.5389 68.5805 81.8612 68.1466C82.196 67.7002 82.3633 67.0866 82.3633 66.3055C82.3633 65.5368 82.196 64.9294 81.8612 64.483C81.5389 64.0367 81.0988 63.8136 80.5409 63.8136C79.983 63.8136 79.5367 64.0367 79.2019 64.483C78.8796 64.917 78.7184 65.5244 78.7184 66.3055C78.7184 67.0866 78.8796 67.7002 79.2019 68.1466C79.5367 68.5805 79.983 68.7974 80.5409 68.7974Z" fill="#3F3F3F"/>
</svg>
