<svg width="20" height="20" viewBox="0 0 20 20" fill="none" xmlns="http://www.w3.org/2000/svg">
<path d="M13.4921 16.4284H3.33333C2.22222 16.4284 1.26984 15.4761 1.26984 14.365V8.5713C1.26984 7.46019 2.22222 6.50781 3.33333 6.50781H13.4921C14.6032 6.50781 15.5556 7.46019 15.5556 8.5713V14.365C15.5556 15.4761 14.6032 16.4284 13.4921 16.4284ZM3.33333 8.09511C3.09523 8.09511 2.85714 8.33321 2.85714 8.5713V14.365C2.85714 14.6031 3.09523 14.8411 3.33333 14.8411H13.4921C13.7302 14.8411 13.9682 14.6031 13.9682 14.365V8.5713C13.9682 8.33321 13.7302 8.09511 13.4921 8.09511H3.33333Z" fill="#6C5F8D"/>
<path d="M17.9365 13.2538C17.4603 13.2538 17.1428 12.9363 17.1428 12.4602V5.79349C17.1428 5.47603 16.9841 5.23794 16.746 5.23794H4.52378C4.04759 5.23794 3.73013 4.92048 3.73013 4.44429C3.73013 3.9681 4.04759 3.65063 4.52378 3.65063H16.746C17.8571 3.65063 18.7301 4.60302 18.7301 5.79349V12.4602C18.7301 12.857 18.4127 13.2538 17.9365 13.2538Z" fill="#6C5F8D"/>
<path d="M8.4127 13.968C6.98413 13.968 5.87302 12.8569 5.87302 11.4284C5.87302 9.99978 6.98413 8.88867 8.4127 8.88867C9.84127 8.88867 10.9524 9.99978 10.9524 11.4284C10.9524 12.8569 9.84127 13.968 8.4127 13.968ZM8.4127 10.5553C7.85714 10.5553 7.46032 10.9522 7.46032 11.5077C7.46032 12.0633 7.85714 12.3807 8.4127 12.3807C8.96825 12.3807 9.36508 11.9839 9.36508 11.4284C9.36508 10.8728 8.96825 10.5553 8.4127 10.5553Z" fill="#6C5F8D"/>
<path d="M4.3651 11.9839C4.67192 11.9839 4.92065 11.7352 4.92065 11.4284C4.92065 11.1215 4.67192 10.8728 4.3651 10.8728C4.05827 10.8728 3.80954 11.1215 3.80954 11.4284C3.80954 11.7352 4.05827 11.9839 4.3651 11.9839Z" fill="#6C5F8D"/>
<path d="M12.4603 11.9839C12.7672 11.9839 13.0159 11.7352 13.0159 11.4284C13.0159 11.1215 12.7672 10.8728 12.4603 10.8728C12.1535 10.8728 11.9048 11.1215 11.9048 11.4284C11.9048 11.7352 12.1535 11.9839 12.4603 11.9839Z" fill="#6C5F8D"/>
</svg>
