<svg width="25" height="24" viewBox="0 0 25 24" fill="none" xmlns="http://www.w3.org/2000/svg">
<path fill-rule="evenodd" clip-rule="evenodd" d="M24.2791 20.4904C24.2791 22.0181 23.1024 23.256 21.6501 23.256H2.72194C1.26972 23.256 0.0930176 22.0181 0.0930176 20.4904V4.45003C0.0930176 3.2282 1.0347 2.23757 2.19615 2.23757H12.8017L17.0601 0.614724C17.3298 0.511292 17.6284 0.657867 17.7267 0.940509L18.1752 2.23757H20.0728C21.2343 2.23757 22.1759 3.2282 22.1759 4.45003V5.55626C23.3374 5.55626 24.2791 6.54689 24.2791 7.76872V20.4904ZM2.19615 3.3438C1.61569 3.3438 1.14458 3.83939 1.14458 4.45003C1.14458 5.06067 1.61569 5.55626 2.19615 5.55626H4.00748H4.10685C4.11027 5.55488 4.11303 5.55266 4.11579 5.55045C4.11855 5.54824 4.12131 5.54603 4.12473 5.54464L9.89888 3.3438H2.19615ZM16.9265 1.8266L17.4849 3.44391L18.2147 5.55626H7.14062L12.9447 3.3438H12.95L15.8492 2.23757H15.8476L16.926 1.8266H16.9265ZM21.1244 4.45003C21.1244 3.83939 20.6533 3.3438 20.0728 3.3438H18.557L19.3215 5.55626H21.1244V4.45003ZM2.19615 6.66249H22.1759C22.7564 6.66249 23.2275 7.15808 23.2275 7.76872V12.1936H21.1244C19.9629 12.1936 19.0212 13.1843 19.0212 14.4061C19.0212 15.6279 19.9629 16.6186 21.1244 16.6186H23.2275V20.4904C23.2275 21.4069 22.5214 22.1497 21.6501 22.1497H2.72194C1.85124 22.1497 1.14458 21.4069 1.14458 20.4904V6.35551C1.4548 6.54578 1.81128 6.66249 2.19615 6.66249ZM21.1244 13.2999C20.5439 13.2999 20.0728 13.7955 20.0728 14.4061C20.0728 15.0168 20.5439 15.5123 21.1244 15.5123H23.2275V13.2999H21.1244ZM22.1759 13.853H21.1244V14.9592H22.1759V13.853Z" fill="#6C5F8D"/>
</svg>
