<svg width="20" height="18" viewBox="0 0 20 18" fill="none" xmlns="http://www.w3.org/2000/svg">
<path d="M14.724 3.91959C13.4803 2.84205 11.7934 2.23669 10.0344 2.23669C8.27543 2.23669 6.58851 2.84205 5.34474 3.91959C4.10097 4.99713 3.40222 6.45859 3.40222 7.98246C3.40222 9.50633 4.10097 10.9678 5.34474 12.0453L9.46382 15.6207C9.53648 15.6841 9.62293 15.7345 9.71817 15.7689C9.81342 15.8032 9.91558 15.8209 10.0188 15.8209C10.1219 15.8209 10.2241 15.8032 10.3194 15.7689C10.4146 15.7345 10.501 15.6841 10.5737 15.6207L14.724 12.0115C15.9626 10.9384 16.6585 9.48305 16.6585 7.96553C16.6585 6.44801 15.9626 4.99265 14.724 3.91959ZM13.6063 11.0432L10.0344 14.1512L6.46244 11.0432C5.75676 10.4312 5.27633 9.65179 5.08188 8.80335C4.88743 7.95492 4.98769 7.07559 5.36999 6.27651C5.75229 5.47744 6.39946 4.79449 7.22969 4.31401C8.05993 3.83353 9.03595 3.57708 10.0344 3.57708C11.0328 3.57708 12.0089 3.83353 12.8391 4.31401C13.6693 4.79449 14.3165 5.47744 14.6988 6.27651C15.0811 7.07559 15.1814 7.95492 14.9869 8.80335C14.7925 9.65179 14.312 10.4312 13.6063 11.0432ZM7.68957 5.90362C7.05859 6.45196 6.70427 7.19465 6.70427 7.96892C6.70427 8.74319 7.05859 9.48587 7.68957 10.0342C8.15835 10.441 8.75536 10.7189 9.40571 10.8328C10.0561 10.9468 10.7308 10.8919 11.3452 10.6749C11.9596 10.4579 12.4864 10.0886 12.8595 9.61319C13.2326 9.13782 13.4353 8.57758 13.4422 8.00277C13.4457 7.61897 13.3604 7.23845 13.1912 6.88371C13.0221 6.52898 12.7725 6.20723 12.4574 5.93748C12.1476 5.66295 11.7782 5.44421 11.3705 5.29383C10.9628 5.14346 10.5247 5.06442 10.0816 5.06127C9.63848 5.05813 9.19901 5.13093 8.78849 5.2755C8.37796 5.42006 8.00449 5.63353 7.68957 5.90362ZM11.3553 9.07266C11.0591 9.33319 10.6677 9.49649 10.2479 9.53464C9.82808 9.5728 9.40603 9.48344 9.05387 9.28185C8.70171 9.08026 8.44132 8.77894 8.3172 8.42943C8.19309 8.07992 8.21297 7.70391 8.37344 7.36568C8.53391 7.02746 8.82501 6.74803 9.19697 6.57517C9.56892 6.40231 9.99864 6.34675 10.4126 6.41799C10.8266 6.48924 11.1992 6.68285 11.4667 6.96575C11.7342 7.24864 11.8799 7.60324 11.879 7.96892C11.8676 8.3869 11.6652 8.78388 11.3162 9.07266H11.3553Z" fill="white"/>
</svg>
