<svg width="14" height="15" viewBox="0 0 14 15" fill="none" xmlns="http://www.w3.org/2000/svg">
<path d="M11.724 2.32425C10.4803 1.24671 8.79336 0.641357 7.03439 0.641357C5.27543 0.641357 3.58851 1.24671 2.34474 2.32425C1.10097 3.40179 0.402222 4.86325 0.402222 6.38712C0.402222 7.91099 1.10097 9.37245 2.34474 10.45L6.46382 14.0253C6.53648 14.0888 6.62293 14.1392 6.71817 14.1735C6.81342 14.2079 6.91558 14.2256 7.01876 14.2256C7.12194 14.2256 7.2241 14.2079 7.31935 14.1735C7.4146 14.1392 7.50104 14.0888 7.5737 14.0253L11.724 10.4161C12.9626 9.34308 13.6585 7.88771 13.6585 6.37019C13.6585 4.85267 12.9626 3.39731 11.724 2.32425ZM10.6063 9.44781L7.03439 12.5559L3.46244 9.44781C2.75676 8.83589 2.27633 8.05645 2.08188 7.20802C1.88743 6.35958 1.98769 5.48025 2.36999 4.68118C2.75229 3.8821 3.39946 3.19916 4.22969 2.71867C5.05993 2.23819 6.03595 1.98174 7.03439 1.98174C8.03283 1.98174 9.00886 2.23819 9.8391 2.71867C10.6693 3.19916 11.3165 3.8821 11.6988 4.68118C12.0811 5.48025 12.1814 6.35958 11.9869 7.20802C11.7925 8.05645 11.312 8.83589 10.6063 9.44781ZM4.68957 4.30829C4.05859 4.85662 3.70427 5.59931 3.70427 6.37358C3.70427 7.14785 4.05859 7.89054 4.68957 8.43887C5.15835 8.84569 5.75536 9.12352 6.40571 9.2375C7.05605 9.35147 7.73077 9.29653 8.34521 9.07955C8.95965 8.86258 9.48644 8.49323 9.85951 8.01785C10.2326 7.54248 10.4353 6.98224 10.4422 6.40744C10.4457 6.02363 10.3604 5.64311 10.1912 5.28838C10.0221 4.93364 9.77255 4.61189 9.45738 4.34214C9.14761 4.06762 8.77823 3.84887 8.37049 3.69849C7.96276 3.54812 7.52473 3.46908 7.0816 3.46594C6.63848 3.46279 6.19901 3.53559 5.78849 3.68016C5.37796 3.82472 5.00449 4.03819 4.68957 4.30829ZM8.35531 7.47732C8.05912 7.73785 7.66766 7.90115 7.24787 7.93931C6.82808 7.97746 6.40603 7.88811 6.05387 7.68651C5.70171 7.48492 5.44132 7.18361 5.3172 6.83409C5.19309 6.48458 5.21297 6.10857 5.37344 5.77035C5.53391 5.43213 5.82501 5.1527 6.19697 4.97984C6.56892 4.80697 6.99864 4.75142 7.41264 4.82266C7.82665 4.8939 8.19923 5.08752 8.4667 5.37041C8.73417 5.6533 8.8799 6.0079 8.87899 6.37358C8.86762 6.79156 8.66522 7.18854 8.31623 7.47732H8.35531Z" fill="#88889D"/>
</svg>
