<svg width="24" height="13" viewBox="0 0 24 13" fill="none" xmlns="http://www.w3.org/2000/svg">
<path d="M5.23636 8.51459L4.89636 8.81931V1.11002C4.89636 0.840632 4.77283 0.58228 4.55296 0.391796C4.33309 0.201312 4.03489 0.0942993 3.72394 0.0942993C3.413 0.0942993 3.11479 0.201312 2.89492 0.391796C2.67505 0.58228 2.55153 0.840632 2.55153 1.11002V8.81931L2.21153 8.51459C1.99076 8.32333 1.69133 8.21588 1.37912 8.21588C1.0669 8.21588 0.767471 8.32333 0.546701 8.51459C0.325931 8.70586 0.201904 8.96527 0.201904 9.23575C0.201904 9.50624 0.325931 9.76565 0.546701 9.95691L2.89153 11.9883C3.00303 12.0808 3.13451 12.1533 3.27843 12.2016C3.41876 12.2554 3.57051 12.2831 3.72394 12.2831C3.87738 12.2831 4.02912 12.2554 4.16946 12.2016C4.31338 12.1533 4.44486 12.0808 4.55636 11.9883L6.90118 9.95691C7.0105 9.86221 7.09721 9.74978 7.15637 9.62604C7.21553 9.50231 7.24598 9.36969 7.24598 9.23575C7.24598 9.10182 7.21553 8.9692 7.15637 8.84546C7.09721 8.72173 7.0105 8.6093 6.90118 8.51459C6.79187 8.41989 6.66209 8.34477 6.51927 8.29351C6.37644 8.24226 6.22336 8.21588 6.06877 8.21588C5.91418 8.21588 5.7611 8.24226 5.61827 8.29351C5.47545 8.34477 5.34567 8.41989 5.23636 8.51459ZM10.7584 2.12573H22.4826C22.7935 2.12573 23.0917 2.01872 23.3116 1.82824C23.5315 1.63775 23.655 1.3794 23.655 1.11002C23.655 0.840632 23.5315 0.58228 23.3116 0.391796C23.0917 0.201312 22.7935 0.0942993 22.4826 0.0942993H10.7584C10.4475 0.0942993 10.1493 0.201312 9.9294 0.391796C9.70953 0.58228 9.58601 0.840632 9.58601 1.11002C9.58601 1.3794 9.70953 1.63775 9.9294 1.82824C10.1493 2.01872 10.4475 2.12573 10.7584 2.12573ZM22.4826 5.17288H10.7584C10.4475 5.17288 10.1493 5.2799 9.9294 5.47038C9.70953 5.66087 9.58601 5.91922 9.58601 6.1886C9.58601 6.45799 9.70953 6.71634 9.9294 6.90682C10.1493 7.09731 10.4475 7.20432 10.7584 7.20432H22.4826C22.7935 7.20432 23.0917 7.09731 23.3116 6.90682C23.5315 6.71634 23.655 6.45799 23.655 6.1886C23.655 5.91922 23.5315 5.66087 23.3116 5.47038C23.0917 5.2799 22.7935 5.17288 22.4826 5.17288ZM22.4826 10.2515H10.7584C10.4475 10.2515 10.1493 10.3585 9.9294 10.549C9.70953 10.7395 9.58601 10.9978 9.58601 11.2672C9.58601 11.5366 9.70953 11.7949 9.9294 11.9854C10.1493 12.1759 10.4475 12.2829 10.7584 12.2829H22.4826C22.7935 12.2829 23.0917 12.1759 23.3116 11.9854C23.5315 11.7949 23.655 11.5366 23.655 11.2672C23.655 10.9978 23.5315 10.7395 23.3116 10.549C23.0917 10.3585 22.7935 10.2515 22.4826 10.2515Z" fill="black"/>
</svg>
