<svg width="43" height="15" viewBox="0 0 43 15" fill="none" xmlns="http://www.w3.org/2000/svg">
<path d="M0.367188 15V1.11328H2.42773V6.73828H3.45312L8.96094 1.11328H11.8027L5.08398 7.97852L12.2227 15H9.3418L3.0332 8.79883H2.42773V15H0.367188ZM13.1992 4.88281H15.2695L16.4316 11.582L18.9316 7.31445H20.875L23.375 11.582L24.5371 4.88281H26.5977L24.8496 15H23.043L19.9082 9.69727L16.7637 15H14.957L13.1992 4.88281ZM28.4922 3.02734C28.2448 2.77995 28.1211 2.48047 28.1211 2.12891C28.1211 1.77734 28.2448 1.47786 28.4922 1.23047C28.7396 0.983073 29.0391 0.859375 29.3906 0.859375C29.7422 0.859375 30.0417 0.983073 30.2891 1.23047C30.5365 1.47786 30.6602 1.77734 30.6602 2.12891C30.6602 2.48047 30.5365 2.77995 30.2891 3.02734C30.0417 3.27474 29.7422 3.39844 29.3906 3.39844C29.0391 3.39844 28.7396 3.27474 28.4922 3.02734ZM28.3555 15V4.88281H30.4258V15H28.3555ZM32.7695 15V1.11328H34.8301V8.75977H35.5234L39.1855 4.88281H41.8613L37.2422 9.78516L42.2715 15H39.3906L35.3379 10.8203H34.8301V15H32.7695Z" fill="white"/>
</svg>
